<svg 
          width="26.258333206176758" 
          height="36.156246185302734" fill="none" 
          xmlns="http://www.w3.org/2000/svg">
          <path d="M 1.8755952290126257 32.76659931766279 C 1.8755952290126265 33.665589560993496 2.17200549894298 34.52775993536798 2.699619004681316 35.16344203400215 C 3.227232510419652 35.79912413263632 3.94282989861508 36.15624618530273 4.688988072531564 36.156246185302734 L 21.569345133645196 36.156246185302734 C 22.31550330756168 36.15624618530273 23.031101142933856 35.79912413263632 23.558714648672193 35.16344203400215 C 24.08632815441053 34.52775993536798 24.38273797716413 33.665589560993496 24.382737977164133 32.76659931766279 L 24.382737977164133 9.039070166643443 L 1.8755952290126257 9.039070166643443 L 1.8755952290126257 32.76659931766279 Z M 17.818154675619944 14.68848161271002 C 17.818154675619944 14.38881818704208 17.916957358293573 14.101428427042677 18.092828522214926 13.889534399776805 C 18.26869968613628 13.677640372510933 18.50723288950458 13.558599323496704 18.755952290126256 13.558599323496704 C 19.004671690747934 13.558599323496704 19.243204894116236 13.677640372510933 19.41907605803759 13.889534399776805 C 19.594947221958943 14.101428427042677 19.69374990463257 14.38881818704208 19.69374990463257 14.68848161271002 L 19.69374990463257 30.506834739236158 C 19.69374990463257 30.8064981649041 19.594947221958943 31.093889002443223 19.41907605803759 31.305783029709094 C 19.243204894116236 31.517677056974964 19.004671690747934 31.636717028449475 18.755952290126256 31.636717028449475 C 18.50723288950458 31.636717028449475 18.26869968613628 31.517677056974964 18.092828522214926 31.305783029709094 C 17.916957358293573 31.093889002443223 17.818154675619944 30.8064981649041 17.818154675619944 30.506834739236158 L 17.818154675619944 14.68848161271002 Z M 12.191368988582067 14.68848161271002 C 12.191368988582067 14.38881818704208 12.290172565609193 14.101428427042677 12.466043729530547 13.889534399776805 C 12.6419148934519 13.677640372510933 12.880447202466701 13.558599323496704 13.129166603088379 13.558599323496704 C 13.377886003710056 13.558599323496704 13.616418312724859 13.677640372510933 13.792289476646213 13.889534399776805 C 13.968160640567566 14.101428427042677 14.066964217594693 14.38881818704208 14.066964217594693 14.68848161271002 L 14.066964217594693 30.506834739236158 C 14.066964217594693 30.8064981649041 13.968160640567566 31.093889002443223 13.792289476646213 31.305783029709094 C 13.616418312724859 31.517677056974964 13.377886003710056 31.636717028449475 13.129166603088379 31.636717028449475 C 12.880447202466701 31.636717028449475 12.6419148934519 31.517677056974964 12.466043729530547 31.305783029709094 C 12.290172565609193 31.093889002443223 12.191368988582067 30.8064981649041 12.191368988582067 30.506834739236158 L 12.191368988582067 14.68848161271002 Z M 6.5645833015441895 14.68848161271002 C 6.5645833015441895 14.38881818704208 6.663386878571315 14.101428427042677 6.83925804249267 13.889534399776805 C 7.0151292064140245 13.677640372510933 7.253661515428826 13.558599323496704 7.502380916050503 13.558599323496704 C 7.751100316672179 13.558599323496704 7.989632625686981 13.677640372510933 8.165503789608335 13.889534399776805 C 8.341374953529689 14.101428427042677 8.440178530556816 14.38881818704208 8.440178530556816 14.68848161271002 L 8.440178530556816 30.506834739236158 C 8.440178530556816 30.8064981649041 8.341374953529689 31.093889002443223 8.165503789608335 31.305783029709094 C 7.989632625686981 31.517677056974964 7.751100316672179 31.636717028449475 7.502380916050503 31.636717028449475 C 7.253661515428826 31.636717028449475 7.0151292064140245 31.517677056974964 6.83925804249267 31.305783029709094 C 6.663386878571315 31.093889002443223 6.5645833015441895 30.8064981649041 6.5645833015441895 30.506834739236158 L 6.5645833015441895 14.68848161271002 Z M 25.320535591670446 2.2597769701334087 L 18.2870534828731 2.2597769701334087 L 17.736097742092042 0.9392270580845926 C 17.6193873424506 0.6569076444000799 17.439606155864652 0.41942662833312266 17.21697919716631 0.25350041184016453 C 16.994352238467968 0.0875741953472064 16.737712624925216 -0.00021382773170601683 16.47593219759918 0.000012381193177299507 L 9.77654031009901 0.000012381193177299507 C 9.515351581458166 -0.00119733695146072 9.259161995416665 0.08626336827808787 9.03732405214422 0.2523741302846173 C 8.815486108871774 0.4184848922911467 8.636972430807923 0.6565267004360196 8.522235464084718 0.9392270580845926 L 7.971279723303659 2.2597769701334087 L 0.9377976145063128 2.2597769701334087 C 0.6890782138846359 2.259776970133409 0.4505457371785532 2.3788177497627077 0.2746745732571989 2.5907117770285795 C 0.09880340933584467 2.8026058042944513 2.5378384786546723e-16 3.089995833678784 0 3.389659259346724 L 1.8220378821110465e-16 5.649423837773355 C 3.1885662936943314e-16 5.949087263441296 0.09880340933584467 6.236477023440699 0.2746745732571989 6.44837105070657 C 0.4505457371785532 6.660265077972442 0.6890782138846359 6.779306126986671 0.9377976145063128 6.779306126986671 L 25.320535591670446 6.779306126986671 C 25.569254992292123 6.779306126986671 25.807788195660425 6.660265077972442 25.98365935958178 6.44837105070657 C 26.159530523503133 6.236477023440699 26.258333206176758 5.949087263441296 26.258333206176758 5.649423837773355 L 26.258333206176758 3.389659259346724 C 26.258333206176758 3.089995833678784 26.159530523503133 2.8026058042944513 25.98365935958178 2.5907117770285795 C 25.807788195660425 2.3788177497627077 25.569254992292123 2.2597769701334096 25.320535591670446 2.2597769701334087 Z" fill="rgb(0,0,0)"/>
        </svg>