<svg 
          width="28.6428165435791" 
          height="33.04060745239258" fill="none" 
          xmlns="http://www.w3.org/2000/svg">
          <path d="M 26.596901076180597 12.98023864201137 L 17.390281472887313 12.98023864201137 L 17.390281472887313 2.360043389456613 C 17.390281472887313 1.0568569247142576 16.474094957520762 0 15.344366005488805 0 L 13.298450538090298 0 C 12.168721586058343 0 11.25253507069179 1.0568569247142576 11.25253507069179 2.360043389456613 L 11.25253507069179 12.98023864201137 L 2.0459154673985074 12.98023864201137 C 0.9161865153665516 12.98023864201137 0 14.037095566725629 0 15.340282031467984 L 0 17.700325420924596 C 0 19.003511885666953 0.9161865153665516 20.06036881038121 2.0459154673985074 20.06036881038121 L 11.25253507069179 20.06036881038121 L 11.25253507069179 30.680564062935968 C 11.25253507069179 31.983750527678325 12.168721586058343 33.04060745239258 13.298450538090298 33.04060745239258 L 15.344366005488805 33.04060745239258 C 16.474094957520762 33.04060745239258 17.390281472887313 31.983750527678325 17.390281472887313 30.680564062935968 L 17.390281472887313 20.06036881038121 L 26.596901076180597 20.06036881038121 C 27.726630028212554 20.06036881038121 28.6428165435791 19.003511885666953 28.6428165435791 17.700325420924596 L 28.6428165435791 15.340282031467984 C 28.6428165435791 14.037095566725629 27.726630028212554 12.98023864201137 26.596901076180597 12.98023864201137 Z" fill="rgb(0,0,0)"/>
        </svg>