<svg 
          width="13.699999809265137" 
          height="16.6875" fill="none" 
          xmlns="http://www.w3.org/2000/svg">
          <path d="M 0 0 L 0 4.767857142857143 L 3.914285659790039 4.767857142857143 L 3.914285659790039 0 L 0 0 Z M 3.6696428060531616 4.469866071428572 L 0.24464285373687744 4.469866071428572 L 0.24464285373687744 0.29799107142857145 L 3.6696428060531616 0.29799107142857145 L 3.6696428060531616 4.469866071428572 Z M 4.892857074737549 0 L 4.892857074737549 4.767857142857143 L 8.807142734527588 4.767857142857143 L 8.807142734527588 0 L 4.892857074737549 0 Z M 8.56249988079071 4.469866071428572 L 5.137499928474426 4.469866071428572 L 5.137499928474426 0.29799107142857145 L 8.56249988079071 0.29799107142857145 L 8.56249988079071 4.469866071428572 Z M 9.785714149475098 0 L 9.785714149475098 4.767857142857143 L 13.699999809265137 4.767857142857143 L 13.699999809265137 0 L 9.785714149475098 0 Z M 13.45535695552826 4.469866071428572 L 10.030357003211975 4.469866071428572 L 10.030357003211975 0.29799107142857145 L 13.45535695552826 0.29799107142857145 L 13.45535695552826 4.469866071428572 Z M 0 5.959821428571429 L 0 10.727678571428573 L 3.914285659790039 10.727678571428573 L 3.914285659790039 5.959821428571429 L 0 5.959821428571429 Z M 3.6696428060531616 10.4296875 L 0.24464285373687744 10.4296875 L 0.24464285373687744 6.257812500000001 L 3.6696428060531616 6.257812500000001 L 3.6696428060531616 10.4296875 Z M 4.892857074737549 5.959821428571429 L 4.892857074737549 10.727678571428573 L 8.807142734527588 10.727678571428573 L 8.807142734527588 5.959821428571429 L 4.892857074737549 5.959821428571429 Z M 8.56249988079071 10.4296875 L 5.137499928474426 10.4296875 L 5.137499928474426 6.257812500000001 L 8.56249988079071 6.257812500000001 L 8.56249988079071 10.4296875 Z M 9.785714149475098 5.959821428571429 L 9.785714149475098 10.727678571428573 L 13.699999809265137 10.727678571428573 L 13.699999809265137 5.959821428571429 L 9.785714149475098 5.959821428571429 Z M 13.45535695552826 10.4296875 L 10.030357003211975 10.4296875 L 10.030357003211975 6.257812500000001 L 13.45535695552826 6.257812500000001 L 13.45535695552826 10.4296875 Z M 0 11.919642857142858 L 0 16.6875 L 3.914285659790039 16.6875 L 3.914285659790039 11.919642857142858 L 0 11.919642857142858 Z M 3.6696428060531616 16.38950892857143 L 0.24464285373687744 16.38950892857143 L 0.24464285373687744 12.217633928571429 L 3.6696428060531616 12.217633928571429 L 3.6696428060531616 16.38950892857143 Z M 4.892857074737549 11.919642857142858 L 4.892857074737549 16.6875 L 8.807142734527588 16.6875 L 8.807142734527588 11.919642857142858 L 4.892857074737549 11.919642857142858 Z M 8.56249988079071 16.38950892857143 L 5.137499928474426 16.38950892857143 L 5.137499928474426 12.217633928571429 L 8.56249988079071 12.217633928571429 L 8.56249988079071 16.38950892857143 Z M 9.785714149475098 11.919642857142858 L 9.785714149475098 16.6875 L 13.699999809265137 16.6875 L 13.699999809265137 11.919642857142858 L 9.785714149475098 11.919642857142858 Z" fill="rgb(0,0,0)"/>
        </svg>