<svg 
          width="18.15644073486328" 
          height="18.15644073486328" fill="none" 
          xmlns="http://www.w3.org/2000/svg">
          <path d="M 18.15644073486328 9.07822036743164 C 18.15644073486328 14.09309496975484 14.091630986429312 18.15644073486328 9.07822036743164 18.15644073486328 C 4.064809748433969 18.15644073486328 0 14.09309496975484 0 9.07822036743164 C 0 4.066273731759499 4.064809748433969 0 9.07822036743164 0 C 14.091630986429312 0 18.15644073486328 4.066273731759499 18.15644073486328 9.07822036743164 Z M 9.321831437848761 3.0016696376185266 C 7.326929057508567 3.0016696376185266 6.054587419116087 3.8420272061409175 5.055470675615652 5.335577437183782 C 4.926032823436436 5.5290753033895665 4.96933727111761 5.79003794153262 5.154855091148479 5.930713749126646 L 6.425037409991708 6.893810344705286 C 6.615570217733113 7.038293151288622 6.887038042882003 7.00392003697296 7.035071609480751 6.816132651796169 C 7.688996333483874 5.9867200482733045 8.137380186422625 5.505757539309871 9.13268993093375 5.505757539309871 C 9.88050836498024 5.505757539309871 10.80549838504662 5.987049947224712 10.80549838504662 6.712209385251035 C 10.80549838504662 7.260416750972435 10.352941886386596 7.541951329166237 9.614567778575058 7.9559254996251365 C 8.753454643707272 8.438645235426462 7.613991275910409 9.03945497149494 7.613991275910409 10.542449458952873 L 7.613991275910409 10.688872368104997 C 7.613991275910409 10.931458517536466 7.8106738539353096 11.128141095561366 8.053260003366779 11.128141095561366 L 10.103180731496504 11.128141095561366 C 10.345766880927973 11.128141095561366 10.542449458952873 10.931458517536466 10.542449458952873 10.688872368104997 L 10.542449458952873 10.640076647647808 C 10.542449458952873 9.59820444148579 13.587533658936962 9.554826813838806 13.587533658936962 6.7354538209976695 C 13.587533658936962 4.6122484670535595 11.385149903499277 3.0016696376185266 9.321831437848761 3.0016696376185266 Z M 9.07822036743164 12.079890005050167 C 8.149716103149125 12.079890005050167 7.394356912182224 12.835249196017068 7.394356912182224 13.763753460299585 C 7.394356912182224 14.692221138962939 8.149716103149125 15.447616915549002 9.07822036743164 15.447616915549002 C 10.006724631714157 15.447616915549002 10.762083822681058 14.692221138962939 10.762083822681058 13.763753460299585 C 10.762083822681058 12.835249196017068 10.006724631714157 12.079890005050167 9.07822036743164 12.079890005050167 Z" fill="rgb(233.39581847190857,233.39581847190857,233.39581847190857)"/>
        </svg>