<svg 
          width="32.03183364868164" 
          height="26.693462371826172" fill="none" 
          xmlns="http://www.w3.org/2000/svg">
          <path d="M 31.838339252078846 12.33182307770312 C 28.822558631695962 4.976523107928793 22.85216826659416 0 16.01591682434082 0 C 9.179665382087482 0 3.207607976817249 4.979999561667152 0.19349561640121746 12.33251889880224 C 0.06628111509350765 12.647077170588972 -9.8784852966402e-17 12.994610540828457 0 13.347079096462647 C -5.186204780736105e-16 13.699547652096836 0.06628111509350765 14.047081022336322 0.19349561640121746 14.361639294123053 C 3.2092762367841 21.71693926389738 9.179665382087482 26.693462371826172 16.01591682434082 26.693462371826172 C 22.85216826659416 26.693462371826172 28.824226891662814 21.713462810159022 31.838339252078846 14.360943473023934 C 31.965553753386555 14.046385201237202 32.03183364868164 13.698851830997716 32.03183364868164 13.346383275363527 C 32.03183364868164 12.993914719729338 31.965553753386555 12.646381349489852 31.838339252078846 12.33182307770312 Z M 16.01591682434082 23.3567795753479 C 14.43208928910691 23.3567795753479 12.88382906060904 22.769700808909022 11.56692460504328 21.66978253459153 C 10.25002014947752 20.569864260274038 9.223618537817623 19.00650805247318 8.617513959417385 17.177410898867493 C 8.011409381017147 15.348313745261805 7.852824819799649 13.33562708506893 8.161814239174266 11.39386790382241 C 8.470803658548883 9.452108722575892 9.23348893452892 7.668488277478238 10.353424159023803 6.2685578794063685 C 11.473359383518686 4.868627481334499 12.900243304624183 3.9152631450284905 14.453638035933304 3.5290232345370596 C 16.007032767242425 3.1427833240456287 17.617169869518406 3.341015635216479 19.08043571056858 4.0986525102381774 C 20.543701551618753 4.856289385259876 21.79437636228104 6.139301817912592 22.67430383665434 7.7854457540802295 C 23.55423131102764 9.431589690247867 24.023890510508892 11.366930690864612 24.023890510508892 13.346731185913086 C 24.024402158821662 14.66144935397593 23.81761968003548 15.96340448186684 23.415362563882393 17.17816824073452 C 23.013105447729306 18.3929319996022 22.42326173695102 19.49668491376691 21.67955079670535 20.426331137813577 C 20.93583985645968 21.355977361860244 20.05284469511847 22.093287987305086 19.0810415791425 22.59611346544595 C 18.10923846316653 23.098938943586813 17.067682818368027 23.357419140932144 16.01591682434082 23.3567795753479 Z M 16.01591682434082 6.673365592956543 C 15.539404266964212 6.681689982025594 15.065966556241914 6.770307854532152 14.608404362908896 6.9368240387192 C 14.985568422292028 7.57751855215516 15.16656102860586 8.365958106659756 15.11855758192758 9.159155709175593 C 15.070554135249301 9.95235331169143 14.796732754080262 10.697783750385346 14.346753994516954 11.260261767168384 C 13.896775234953646 11.822739783951421 13.30043657487792 12.165017168321022 12.665883645485232 12.225021963908603 C 12.031330716092544 12.285026759496184 11.400584194200519 12.058785225213938 10.888032745410058 11.587326322732528 C 10.596168129150149 12.931444655875358 10.648853954387274 14.356131329165049 11.038673395906082 15.660860327714243 C 11.42849283742489 16.965589326263437 12.135818012709114 18.084663629688883 13.061091546543778 18.86057031654976 C 13.986365080378443 19.63647700341064 15.082996745426662 20.030148853036998 16.196633673344 19.986173378881784 C 17.310270601261337 19.94219790472657 18.384837969027355 19.462790616814743 19.269088249912546 18.615429149080835 C 20.153338530797736 17.768067681346928 20.80274743823577 16.595417805046548 21.125909112121505 15.262534569555404 C 21.44907078600724 13.92965133406426 21.429713327498185 12.503648063306155 21.07056123592729 11.185237190702235 C 20.711409144356395 9.866826318098315 20.030546992059502 8.722392862447105 19.123807075485 7.913019673370401 C 18.2170671589105 7.103646484293696 17.130106161840263 6.6700871951854275 16.01591682434082 6.673365592956543 Z" fill="rgb(203.64581644535065,202.51441955566406,202.51441955566406)"/>
        </svg>