<svg 
          width="18.15644073486328" 
          height="19.366870880126953" fill="none" 
          xmlns="http://www.w3.org/2000/svg">
          <path d="M 18.15644073486328 9.683435440063477 C 18.15644073486328 15.032635226601528 14.091630986429312 19.366870880126953 9.07822036743164 19.366870880126953 C 4.064809748433969 19.366870880126953 0 15.032635226601528 0 9.683435440063477 C 0 4.3373588180762574 4.064809748433969 0 9.07822036743164 0 C 14.091630986429312 0 18.15644073486328 4.3373588180762574 18.15644073486328 9.683435440063477 Z M 9.321831437848761 3.2017810729242138 C 7.326929057508567 3.2017810729242138 6.054587419116087 4.098162514660192 5.055470675615652 5.691282823865373 C 4.926032823436436 5.897680555949052 4.96933727111761 6.176040714267375 5.154855091148479 6.326094914945579 L 6.425037409991708 7.353397990699088 C 6.615570217733113 7.507512990459194 6.887038042882003 7.470848333744786 7.035071609480751 7.270541781665322 C 7.688996333483874 6.385834969722084 8.137380186422625 5.872808273284224 9.13268993093375 5.872808273284224 C 9.88050836498024 5.872808273284224 10.80549838504662 6.386186861950781 10.80549838504662 7.159690292983624 C 10.80549838504662 7.744444839455633 10.352941886386596 8.044748401359195 9.614567778575058 8.486320867244014 C 8.753454643707272 9.001221939049467 7.613991275910409 9.642085682768728 7.613991275910409 11.245279865880166 L 7.613991275910409 11.401464308461835 C 7.613991275910409 11.660222878048948 7.8106738539353096 11.870017636206843 8.053260003366779 11.870017636206843 L 10.103180731496504 11.870017636206843 C 10.345766880927973 11.870017636206843 10.542449458952873 11.660222878048948 10.542449458952873 11.401464308461835 L 10.542449458952873 11.349415537923754 C 10.542449458952873 10.238085140904463 13.587533658936962 10.191815669591609 13.587533658936962 7.184484358756773 C 13.587533658936962 4.91973189199862 11.385149903499277 3.2017810729242138 9.321831437848761 3.2017810729242138 Z M 9.07822036743164 12.88521651298769 C 8.149716103149125 12.88521651298769 7.394356912182224 13.69093301509282 7.394356912182224 14.681337602676884 C 7.394356912182224 15.67170316559897 8.149716103149125 16.477458692366078 9.07822036743164 16.477458692366078 C 10.006724631714157 16.477458692366078 10.762083822681058 15.67170316559897 10.762083822681058 14.681337602676884 C 10.762083822681058 13.69093301509282 10.006724631714157 12.88521651298769 9.07822036743164 12.88521651298769 Z" fill="rgb(235.87500303983688,235.87500303983688,235.87500303983688)"/>
        </svg>