<svg 
          width="37" 
          height="35" fill="none" 
          xmlns="http://www.w3.org/2000/svg">
          <path d="M 36.99996812884707 17.466938970941612 C 37.018841095803126 27.108892802310876 28.70630532613726 34.993221486547476 18.51341092584961 34.99999569307552 C 14.11108613443646 35.00295940836582 10.06734823762984 33.55130484583764 6.8896030638637615 31.12522155280994 C 6.0632953329311094 30.49437360497947 6.001528896276133 29.322928033230017 6.752419377365649 28.612624260154977 L 7.592900949871106 27.817572461081863 C 8.235104041086839 27.210081368493878 9.260361112621949 27.14361102150743 9.971864539970671 27.67757372731766 C 12.313082298423264 29.43498640196268 15.275988725610414 30.48392911122245 18.499984064423536 30.48392911122245 C 26.08684258517627 30.48392911122245 32.225778692866804 24.675682356813066 32.225778692866804 17.50003337866474 C 32.225778692866804 10.32325544793645 26.085649124324693 4.51613764610703 18.499984064423536 4.51613764610703 C 14.858620327015256 4.51613764610703 11.551375544809057 5.854678495932141 9.095726546000103 8.03957172988914 L 12.881807798243543 11.621010395869734 C 13.633742628719158 12.332302069747936 13.101196436466704 13.54841293832109 12.037894954648827 13.54841293832109 L 1.193547358995067 13.54841293832109 C 0.5343362412478923 13.54841293832109 0 13.042958337673587 0 12.419378526794333 L 0 2.1611834800897345 C 0 1.1553549691787257 1.2855996432830437 0.6515939319925549 2.0375344737586585 1.3628150799823564 L 5.720523075145411 4.846732862455229 C 9.04179230289507 1.8442775540262146 13.543182028213723 0 18.499984064423536 0 C 28.705559768809856 0 36.98109516189102 7.817151920669897 36.99996812884707 17.466938970941612 Z M 23.504529087718396 23.026304172111594 L 24.237292423734733 22.135072288958703 C 24.844360414486808 21.396754327474667 24.70374403408011 20.332711002613873 23.92323863581129 19.758526433779775 L 20.88707878241367 17.524660372855376 L 20.88707878241367 10.161309703740816 C 20.88707878241367 9.225975250366135 20.085537142675463 8.467758086450681 19.09675774392107 8.467758086450681 L 17.903210384926005 8.467758086450681 C 16.914430986171613 8.467758086450681 16.112889346433402 9.225975250366135 16.112889346433402 10.161309703740816 L 16.112889346433402 19.73347520752762 L 20.99218529174595 23.323380748675145 C 21.77269069001477 23.897565317509244 22.89746109696632 23.76462213359563 23.504529087718396 23.026304172111594 Z" fill="rgb(255,255,255)"/>
        </svg>