<svg 
          width="37.83000183105469" 
          height="37.83000183105469" fill="none" 
          xmlns="http://www.w3.org/2000/svg">
          <path d="M 18.413450045942305 9.814095478806752 L 6.305498670781016 22.638039785982492 L 6.305498670781016 36.47877956785017 C 6.305498670781016 36.83714600663431 6.416202833292237 37.18083570035828 6.613257135348952 37.43423902370894 C 6.810311437405668 37.6876423470596 7.0775742258176875 37.83000183105469 7.356251109535736 37.83000183105469 L 14.71545834213201 37.80551020590356 C 14.993223869394223 37.803724211367744 15.259138834790898 37.660576027089284 15.455058286215051 37.40736601776863 C 15.650977737639204 37.15415600844798 15.760960370577743 36.81148684608646 15.760956898443883 36.45428794269905 L 15.760956898443883 28.37144598862308 C 15.760956898443883 28.013079549838935 15.871661060955104 27.66938985611497 16.06871536301182 27.415986532764308 C 16.265769665068536 27.162583209413643 16.533032453480555 27.020223725418564 16.811709337198604 27.020223725418564 L 21.014720094293097 27.020223725418564 C 21.293396978011145 27.020223725418564 21.56065876434755 27.162583209413643 21.757713066404268 27.415986532764308 C 21.954767368460985 27.66938985611497 22.065472533047817 28.013079549838935 22.065472533047817 28.37144598862308 L 22.065472533047817 36.448378304009 C 22.065040459590488 36.6261783243677 22.09189847260441 36.80233863865363 22.144510245006074 36.96676418123429 C 22.19712201740774 37.13118972381495 22.27445317110965 37.28064686903622 22.3720675878282 37.40656706966836 C 22.469682004546755 37.53248727030051 22.58566087388467 37.632395337610824 22.71335850865877 37.70056450705543 C 22.841056143432873 37.76873367650004 22.97796147524329 37.803822974055805 23.116224971802538 37.80382210588525 L 30.47280476213958 37.83000183105469 C 30.75148164585763 37.83000183105469 31.018745436345263 37.6876423470596 31.21579973840198 37.43423902370894 C 31.412854040458697 37.18083570035828 31.523557200894302 36.83714600663431 31.523557200894302 36.47877956785017 L 31.523557200894302 22.62875137000389 L 19.418233267992242 9.814095478806752 C 19.27591883379215 9.666579860021734 19.098631271745493 9.586137545036689 18.91584065489166 9.586137545036689 C 18.733050038037828 9.586137545036689 18.555764480142397 9.666579860021734 18.413450045942305 9.814095478806752 Z M 37.53911531359532 18.530324157385806 L 32.04893342027166 12.710778463276625 L 32.04893342027166 1.0134166974033865 C 32.04893342027166 0.7446418783826687 31.965906053859314 0.4868755695254773 31.81811532340242 0.29682307197878405 C 31.670324592945526 0.10677057443209084 31.46987674616544 0 31.26086909120562 0 L 27.5832355555641 0 C 27.374227900604282 0 27.173780053824196 0.10677057443209084 27.025989323367302 0.29682307197878405 C 26.878198592910408 0.4868755695254773 26.79517122649806 0.7446418783826687 26.79517122649806 1.0134166974033865 L 26.79517122649806 7.145432282153416 L 20.91555469155723 0.9247428008118885 C 20.3513110279794 0.3276538106934118 19.64328304185043 0.0011935898030204046 18.912557855181042 0.0011935898030216048 C 18.181832668511653 0.0011935898030210048 17.47380468238269 0.3276538106934118 16.909561018804858 0.9247428008118885 L 0.2860008351748458 18.530324157385806 C 0.2062011308282128 18.61514183070015 0.14017950036194082 18.7193476971643 0.09170828482446523 18.836988788040028 C 0.04323706928698963 18.954629878915757 0.013266250794332076 19.083401325580738 0.0035083017082827984 19.215942758256904 C -0.006249647377766478 19.34848419093307 0.004396518682239316 19.482199320248878 0.03483849742211723 19.609447892906406 C 0.06528047616199514 19.736696465563934 0.11492164825055595 19.854983268791013 0.1809255975623464 19.957552157445186 L 1.8555623281425446 22.575546581029904 C 1.92138647534011 22.678473184198932 2.002350333202292 22.763694227643487 2.093819082811494 22.82633123520021 C 2.185287832420696 22.888968242756935 2.2854653080402976 22.9277919344655 2.3886165761318447 22.940578236286623 C 2.491767844223392 22.953364538107746 2.595867396822883 22.939863464154136 2.6949558511118195 22.900847320435865 C 2.7940443054007558 22.861831176717594 2.8861759515145957 22.798065808496943 2.9660764270901354 22.713202761454173 L 18.413450045942305 6.351589717971151 C 18.555764480142397 6.204074099186132 18.733050038037828 6.123630495575118 18.91584065489166 6.123630495575118 C 19.098631271745493 6.123630495575118 19.27591883379215 6.204074099186132 19.418233267992242 6.351589717971151 L 34.86626700415496 22.713202761454173 C 34.94602776064083 22.798080990121633 35.038011256138155 22.861916739468402 35.13696370214867 22.90106380959852 C 35.235916148159184 22.940210879728635 35.33989718965992 22.953902290281544 35.442965528165715 22.941353989119463 C 35.54603386667151 22.928805687957382 35.646170546853426 22.890263598775576 35.73765191635239 22.82793170865268 C 35.829133285851356 22.765599818529786 35.910165003021504 22.68069899360463 35.97612186260817 22.578080019683334 L 37.6507585618735 19.96008559609862 C 37.716691575192044 19.856925308664177 37.76612345047985 19.738026317495702 37.79620783305687 19.610221068487313 C 37.826292215633885 19.482415819478923 37.836436320037784 19.348224472396144 37.826061669741456 19.21536029931929 C 37.81568701944513 19.082496126242436 37.78499438773506 18.95357897423654 37.73575060712861 18.836017164060024 C 37.686506826522155 18.71845535388351 37.619681660587474 18.614567365270496 37.53911531359532 18.530324157385806 Z" fill="rgb(0,0,0)"/>
        </svg>