<svg 
          width="28.54166603088379" 
          height="34.765625" fill="none" 
          xmlns="http://www.w3.org/2000/svg">
          <path d="M 28.54166603088379 11.950751976110041 C 28.54166603088379 18.55092463665642 24.149036928139623 23.9013671875 18.730468332767487 23.9013671875 C 18.105004464626933 23.9013671875 17.493477222668 23.829255657619797 16.900512957109754 23.692977125756443 L 15.561953784077105 25.527271768078208 C 15.436433545406949 25.699276456725784 15.282425928737009 25.83694649838435 15.110071722349971 25.931218801997602 C 14.937717515962934 26.025491105610854 14.750924784841835 26.074227030452114 14.5619910071008 26.07421875 L 12.486978888511658 26.07421875 L 12.486978888511658 28.790283203125 C 12.486978888511658 29.69031906905002 11.887994126332924 30.419921875 11.14908829331398 30.419921875 L 8.919270634651184 30.419921875 L 8.919270634651184 33.135986328125 C 8.919270634651184 34.03602219405002 8.32028587247245 34.765625 7.5813800394535065 34.765625 L 1.3378905951976776 34.765625 C 0.5989847621787341 34.765625 0 34.03602219405002 0 33.135986328125 L 0 27.835655095987022 C 0 27.40346135542495 0.14098021062370414 26.988921434167423 0.3918346972232687 26.68329628650099 L 9.411558274389563 15.696679637767375 C 9.092527110111908 14.518315068562515 8.919270634651184 13.259215539437719 8.919270634651184 11.95068359375 C 8.919270634651184 5.350510933203623 13.311843597271803 0.00006790226318837444 18.73041219264394 6.486350959654125e-10 C 24.164979447315147 -0.00006790096591818251 28.54166603088379 5.331024032784626 28.54166603088379 11.950751976110041 Z M 18.730468332767487 8.69140625 C 18.730468332767487 10.49147798185004 19.928437857124955 11.95068359375 21.406249523162842 11.95068359375 C 22.88406118920073 11.95068359375 24.082030713558197 10.49147798185004 24.082030713558197 8.69140625 C 24.082030713558197 6.891334518149961 22.88406118920073 5.43212890625 21.406249523162842 5.43212890625 C 19.928437857124955 5.43212890625 18.730468332767487 6.891334518149961 18.730468332767487 8.69140625 Z" fill="rgb(0,0,0)"/>
        </svg>