<svg 
          width="37.83000183105469" 
          height="37.83000183105469" fill="none" 
          xmlns="http://www.w3.org/2000/svg">
          <path d="M 18.915000915527344 0 C 8.465988312998126 0 0 8.465988312998126 0 18.915000915527344 C 0 29.36401351805656 8.465988312998126 37.83000183105469 18.915000915527344 37.83000183105469 C 29.36401351805656 37.83000183105469 37.83000183105469 29.36401351805656 37.83000183105469 18.915000915527344 C 37.83000183105469 8.465988312998126 29.36401351805656 0 18.915000915527344 0 Z M 18.915000915527344 7.321935838268649 C 22.62173081727181 7.321935838268649 25.62677543394027 10.326980454937111 25.62677543394027 14.033710356681578 C 25.62677543394027 17.740440258426045 22.62173081727181 20.745484875094505 18.915000915527344 20.745484875094505 C 15.208271013782877 20.745484875094505 12.203226397114415 17.740440258426045 12.203226397114415 14.033710356681578 C 12.203226397114415 10.326980454937111 15.208271013782877 7.321935838268649 18.915000915527344 7.321935838268649 Z M 18.915000915527344 33.55887259206464 C 14.437942172896474 33.55887259206464 10.426131611224147 31.530085156133048 7.741421745669457 28.357246409262334 C 9.175300789140882 25.657282452521734 11.98204280228768 23.79629147437311 15.254032996393018 23.79629147437311 C 15.437081399623425 23.79629147437311 15.62013025745944 23.826800006791252 15.795551633281114 23.880189121369416 C 16.78706377804666 24.20052379974629 17.82433754173786 24.40645279422883 18.915000915527344 24.40645279422883 C 20.005664289316826 24.40645279422883 21.050565098600984 24.20052379974629 22.034450197773573 23.880189121369416 C 22.209871573595247 23.826800006791252 22.392920431431264 23.79629147437311 22.57596883466167 23.79629147437311 C 25.847959028767008 23.79629147437311 28.654701041913803 25.657282452521734 30.088580085385228 28.357246409262334 C 27.403870219830537 31.530085156133048 23.392059658158214 33.55887259206464 18.915000915527344 33.55887259206464 Z" fill="rgb(0,0,0)"/>
        </svg>