<svg 
          width="17.125" 
          height="19.46875" fill="none" 
          xmlns="http://www.w3.org/2000/svg">
          <path d="M 16.93225910432844 16.731451373547316 C 17.48103193879437 17.94802007940598 16.792196115517527 19.46875 15.69613696856913 19.46875 L 1.4286968793971657 19.46875 C 0.33052686442739776 19.46875 -0.3551270198128491 17.945662525016814 0.1925755233615629 16.731451373547316 L 7.326384669102138 0.9120274509768933 C 7.875425048037354 -0.3051116052083671 9.250567384297753 -0.30290621193125844 9.79862667233361 0.9120274509768933 L 16.93225910432844 16.731451373547316 Z M 8.56250544388916 13.4608154296875 C 7.807192078512777 13.4608154296875 7.1948848045238485 14.243938267347403 7.1948848045238485 15.2099609375 C 7.1948848045238485 16.175983607652597 7.807192078512777 16.9591064453125 8.56250544388916 16.9591064453125 C 9.317818809265543 16.9591064453125 9.9301265369119 16.175983607652597 9.9301265369119 15.2099609375 C 9.9301265369119 14.243938267347403 9.317818809265543 13.4608154296875 8.56250544388916 13.4608154296875 Z M 7.264068469899982 7.17355019133538 L 7.484612214821006 12.344936329871416 C 7.49492883489039 12.586926802439848 7.651372177835209 12.7763671875 7.840847165315258 12.7763671875 L 9.284163722463061 12.7763671875 C 9.47363870994311 12.7763671875 9.630082506545358 12.586926802439848 9.640399126614742 12.344936329871416 L 9.860942871535766 7.17355019133538 C 9.872091956533234 6.912167009868426 9.70937493182721 6.6923828125 9.504707467384085 6.6923828125 L 7.62027438631872 6.6923828125 C 7.415606921875595 6.6923828125 7.252919384902514 6.912167009868426 7.264068469899982 7.17355019133538 Z" fill="rgb(255,255,255)"/>
        </svg>