<svg 
          width="39.939998626708984" 
          height="39.939998626708984" fill="none" 
          xmlns="http://www.w3.org/2000/svg">
          <path d="M 39.939998626708984 19.969999313354492 C 39.939998626708984 31.001571395943873 30.99835096894141 39.939998626708984 19.969999313354492 39.939998626708984 C 8.941647657767575 39.939998626708984 0 31.001571395943873 0 19.969999313354492 C 0 8.94486808477004 8.941647657767575 0 19.969999313354492 0 C 30.99835096894141 0 39.939998626708984 8.94486808477004 39.939998626708984 19.969999313354492 Z M 19.969999313354492 23.996208852337254 C 17.924282191305778 23.996208852337254 16.265886537490353 25.65460450615268 16.265886537490353 27.700321628201394 C 16.265886537490353 29.746038750250108 17.924282191305778 31.404434404065533 19.969999313354492 31.404434404065533 C 22.015716435403206 31.404434404065533 23.67411208921863 29.746038750250108 23.67411208921863 27.700321628201394 C 23.67411208921863 25.65460450615268 22.015716435403206 23.996208852337254 19.969999313354492 23.996208852337254 Z M 16.453265995227763 10.681856563972332 L 17.050594383453568 21.633145281303797 C 17.07853627788449 22.14560121883133 17.50225535406265 22.54677341830346 18.01543603357406 22.54677341830346 L 21.924563821836568 22.54677341830346 C 22.437744501347975 22.54677341830346 22.861462348824496 22.14560121883133 22.889404243255417 21.633145281303797 L 23.48673263148122 10.681856563972332 C 23.51692920302359 10.128333270716649 23.076220725259446 9.662902893558625 22.52189221006237 9.662902893558625 L 17.418026551039915 9.662902893558625 C 16.863698035842837 9.662902893558625 16.423069423685394 10.128333270716649 16.453265995227763 10.681856563972332 Z" fill="rgb(255,35.7707903534174,35.7707903534174)"/>
        </svg>